<html>
<head>
<meta charset="UTF-8">
<meta name="viewport" content="width=device-width, initial-scale=1.0"/>

<style>
.comment
{
    padding-left: 20px;
    margin-top: 4px;
    margin-right: 4px;
    margin-bottom: 4px;
    border: 2px #000 solid;
}
.submission
{
    border: 4px #00f solid;
    padding-left: 20px;
}
.hidden
{
    display: none;
}
</style>
</head>
<body><div class="submission" id="t3_7xk0oz">
    <p class="userinfo">
        <a href="https://www.reddit.com/u/TheCrach">TheCrach</a>
        <span class="score"> | 15 points</span>
        <span class="timestamp"> | Feb 14 2018 18:14:28</span>
    </p>
    <strong>[MOVIE] Always (1989) BluRay 10Bit 1080p DD5.1 H265-d3g (2.74 GB)</strong>
    <p><p><strong><a href="http://links.snahp.it/970nyuhgfytfhuyjghku">MEGA</a></strong></p>
<pre><code>Source: BluRay ISO

Format                                   : Matroska
Format version                           : Version 2
File size                                : 2.74 GiB
Duration                                 : 2 h 2 min
Overall bit rate                         : 3 207 kb/s
Movie name                               : Always 1989 BluRay 10Bit 1080p DD5.1 H265-d3g
Encoded date                             : UTC 2017-11-04 18:34:21
Writing application                      : DVDFab 10.0.6.5
Writing library                          : libebml v1.3.4 + libmatroska v1.4.5

Video
ID                                       : 1
Format                                   : HEVC
Format/Info                              : High Efficiency Video Coding
Format profile                           : Main 10@L4@High
Codec ID                                 : V_MPEGH/ISO/HEVC
Duration                                 : 2 h 2 min
Bit rate                                 : 2 749 kb/s
Width                                    : 1 920 pixels
Height                                   : 1 040 pixels
Display aspect ratio                     : 1.85:1
Frame rate mode                          : Constant
Frame rate                               : 23.976 (24000/1001) FPS
Color space                              : YUV
Chroma subsampling                       : 4:2:0
Bit depth                                : 10 bits
Bits/(Pixel*Frame)                       : 0.057
Stream size                              : 2.35 GiB (86%)
Default                                  : Yes
Forced                                   : No
Color range                              : Limited
Color primaries                          : BT.709
Transfer characteristics                 : BT.709
Matrix coefficients                      : BT.709

Audio
ID                                       : 2
Format                                   : AC-3
Format/Info                              : Audio Coding 3
Format settings, Endianness              : Big
Codec ID                                 : A_AC3
Duration                                 : 2 h 2 min
Bit rate mode                            : Constant
Bit rate                                 : 448 kb/s
Channel(s)                               : 6 channels
Channel positions                        : Front: L C R, Side: L R, LFE
Sampling rate                            : 48.0 kHz
Frame rate                               : 31.250 FPS (1536 SPF)
Bit depth                                : 16 bits
Compression mode                         : Lossy
Stream size                              : 392 MiB (14%)
Language                                 : English
Service kind                             : Complete Main
Default                                  : Yes
Forced                                   : No

Text
ID                                       : 3
Format                                   : VobSub
Codec ID                                 : S_VOBSUB
Codec ID/Info                            : Picture based subtitle format used on DVDs
Duration                                 : 1 h 55 min
Bit rate                                 : 8 016 b/s
Count of elements                        : 1440
Stream size                              : 6.65 MiB (0%)
Language                                 : English
Default                                  : No
Forced                                   : No
</code></pre></p>
    <p class="toolbar">
        <a href="https://www.reddit.com/r/megalinks/comments/7xk0oz">permalink</a>
    </p>
</div>
<div class="comment" id="t1_du8tz1m">
    <p class="userinfo">
        <a
        class="toggle_hide_button"
        href="javascript:void(0)"
        onclick="toggle_collapse(this.parentElement.parentElement)">[-]
        </a>
        <a href="https://www.reddit.com/u/SubZorro">SubZorro</a>
        <span class="score"> | 1 points</span>
        <span class="timestamp"> | Feb 14 2018 18:19:05</span>
    </p>
    <div class="collapsible">
        <h5>Subtitles for this movie:</h5>
<hr>
<blockquote>
<ul>
<li>
<p><strong>Always.1989.iNTERNAL.DVDRip.XViD-iLS</strong> - <code>1 CD</code> - <a href="http://dl.opensubtitles.org/en/download/vrf-f05d1d59/sub/4687832">Download Subtitle</a></p>
</li>
<li>
<p><strong>Always (1989)</strong> - <code>2 CD</code> - <a href="http://dl.opensubtitles.org/en/download/vrf-46877f84/sub/53477">Download Subtitle</a></p>
</li>
<li>
<p><strong>Always</strong> - <code>1 CD</code> - <a href="http://dl.opensubtitles.org/en/download/vrf-e7ec4026/sub/3385919">Download Subtitle</a></p>
</li>
<li>
<p><strong>Always.1989.1080p.BluRay.X264-AMIABLE</strong> - <code>1 CD</code> - <a href="http://dl.opensubtitles.org/en/download/vrf-fadff93d/sub/6959429">Download Subtitle</a></p>
</li>
<li>
<p><strong>Always - 1989 - 1080p</strong> - <code>1 CD</code> - <a href="http://dl.opensubtitles.org/en/download/vrf-4e425fcc/sub/6013949">Download Subtitle</a></p>
</li>
<li>
<p><strong>Always.1989.1080p.BluRay.x264.DTS-WiKi</strong> - <code>1 CD</code> - <a href="http://dl.opensubtitles.org/en/download/vrf-be93a6b2/sub/6209417">Download Subtitle</a></p>
</li>
</ul>
</blockquote>
<hr>
<p>^This ^list ^of ^subtitles ^are ^taken ^from <a href="http://www.opensubtitles.org">^opensubtitles.org</a> ^| ^For ^feedback ^or ^suggestions ^contact <a href="http://www.reddit.com/message/compose/?to=indigo6alpha">^/u/indigo6alpha</a></p>
        <p class="toolbar">
            <a href="https://www.reddit.com/r/megalinks/comments/7xk0oz/_/du8tz1m">permalink</a>
        </p>
        
    </div>
</div>
</body>

<script>
function toggle_collapse(comment_div)
{
    var button = comment_div.getElementsByClassName("toggle_hide_button")[0];
    var collapsible = comment_div.getElementsByClassName("collapsible")[0];
    if (collapsible.classList.contains("hidden"))
    {
        collapsible.classList.remove("hidden");
        button.innerText = "[-]";
    }
    else
    {
        collapsible.classList.add("hidden");
        button.innerText = "[+]";
    }
}
</script>
</html>
